<svg class="sc-1syzb6g-0 dZGYjt" width="20" height="20" viewBox="0 0 20 20" fill="#ffffff" xmlns="http://www.w3.org/2000/svg"><path fill-rule="evenodd" clip-rule="evenodd" d="M14.629 4.39717C14.9715 3.79465 14.7645 3.02201 14.1667 2.67144C13.5688 2.32086 12.8065 2.52511 12.464 3.12763L9.99999 7.46206L7.53602 3.12763C7.19351 2.52511 6.43119 2.32086 5.83332 2.67144C5.23546 3.02201 5.02845 3.79465 5.37096 4.39717L7.83488 8.73152H2.93617C2.23502 8.73152 1.66663 9.29991 1.66663 10.0011C1.66663 10.7022 2.23502 11.2706 2.93617 11.2706H7.83497L5.37096 15.6051C5.02845 16.2076 5.23546 16.9803 5.83332 17.3308C6.43119 17.6814 7.19351 17.4772 7.53602 16.8747L9.99999 12.5402L12.464 16.8747C12.8065 17.4772 13.5688 17.6814 14.1667 17.3308C14.7645 16.9803 14.9715 16.2076 14.629 15.6051L12.165 11.2706H17.0638C17.7649 11.2706 18.3333 10.7022 18.3333 10.0011C18.3333 9.29991 17.7649 8.73152 17.0638 8.73152H12.1651L14.629 4.39717Z" fill="#ffffff"></path></svg>